<mxfile host="app.diagrams.net" modified="2023-07-26T09:33:16.838Z" agent="Mozilla/5.0 (Windows NT 10.0; Win64; x64; rv:109.0) Gecko/20100101 Firefox/115.0" etag="YmT3B-VXBCdVOIrjgnyW" version="21.6.5" type="github">
  <diagram name="Seite-1" id="MTelYslC9tvMM5cR7A6c">
    <mxGraphModel dx="2868" dy="1884" grid="1" gridSize="10" guides="1" tooltips="1" connect="1" arrows="1" fold="1" page="1" pageScale="1" pageWidth="827" pageHeight="1169" math="0" shadow="0">
      <root>
        <mxCell id="0" />
        <mxCell id="1" parent="0" />
        <mxCell id="zAW8dGN2lJ-clcFLrGdg-1" value="5" style="whiteSpace=wrap;html=1;aspect=fixed;fontSize=49;" vertex="1" parent="1">
          <mxGeometry x="50" y="220" width="80" height="80" as="geometry" />
        </mxCell>
        <mxCell id="zAW8dGN2lJ-clcFLrGdg-2" value="0" style="whiteSpace=wrap;html=1;aspect=fixed;fontSize=49;" vertex="1" parent="1">
          <mxGeometry x="130" y="220" width="80" height="80" as="geometry" />
        </mxCell>
        <mxCell id="zAW8dGN2lJ-clcFLrGdg-3" value="0" style="whiteSpace=wrap;html=1;aspect=fixed;fontSize=49;" vertex="1" parent="1">
          <mxGeometry x="50" y="300" width="80" height="80" as="geometry" />
        </mxCell>
        <mxCell id="zAW8dGN2lJ-clcFLrGdg-4" value="0" style="whiteSpace=wrap;html=1;aspect=fixed;fontSize=49;" vertex="1" parent="1">
          <mxGeometry x="210" y="220" width="80" height="80" as="geometry" />
        </mxCell>
        <mxCell id="zAW8dGN2lJ-clcFLrGdg-5" value="5" style="whiteSpace=wrap;html=1;aspect=fixed;fontSize=49;" vertex="1" parent="1">
          <mxGeometry x="210" y="300" width="80" height="80" as="geometry" />
        </mxCell>
        <mxCell id="zAW8dGN2lJ-clcFLrGdg-100" style="edgeStyle=orthogonalEdgeStyle;rounded=0;orthogonalLoop=1;jettySize=auto;html=1;exitX=1;exitY=0.5;exitDx=0;exitDy=0;entryX=0;entryY=0.5;entryDx=0;entryDy=0;fillColor=#f8cecc;strokeColor=#b85450;strokeWidth=5;" edge="1" parent="1" source="zAW8dGN2lJ-clcFLrGdg-6" target="zAW8dGN2lJ-clcFLrGdg-34">
          <mxGeometry relative="1" as="geometry" />
        </mxCell>
        <mxCell id="zAW8dGN2lJ-clcFLrGdg-6" value="" style="whiteSpace=wrap;html=1;fontSize=49;" vertex="1" parent="1">
          <mxGeometry x="130" y="140" width="160" height="80" as="geometry" />
        </mxCell>
        <mxCell id="zAW8dGN2lJ-clcFLrGdg-7" value="A" style="whiteSpace=wrap;html=1;aspect=fixed;fontSize=49;" vertex="1" parent="1">
          <mxGeometry x="50" y="140" width="80" height="80" as="geometry" />
        </mxCell>
        <mxCell id="zAW8dGN2lJ-clcFLrGdg-8" value="0" style="whiteSpace=wrap;html=1;aspect=fixed;fontSize=49;" vertex="1" parent="1">
          <mxGeometry x="50" y="60" width="80" height="80" as="geometry" />
        </mxCell>
        <mxCell id="zAW8dGN2lJ-clcFLrGdg-9" value="5" style="whiteSpace=wrap;html=1;aspect=fixed;fontSize=49;" vertex="1" parent="1">
          <mxGeometry x="210" y="60" width="80" height="80" as="geometry" />
        </mxCell>
        <mxCell id="zAW8dGN2lJ-clcFLrGdg-10" value="12" style="whiteSpace=wrap;html=1;aspect=fixed;fontSize=49;" vertex="1" parent="1">
          <mxGeometry x="50" y="650" width="80" height="80" as="geometry" />
        </mxCell>
        <mxCell id="zAW8dGN2lJ-clcFLrGdg-11" value="10" style="whiteSpace=wrap;html=1;aspect=fixed;fontSize=49;" vertex="1" parent="1">
          <mxGeometry x="130" y="650" width="80" height="80" as="geometry" />
        </mxCell>
        <mxCell id="zAW8dGN2lJ-clcFLrGdg-12" value="10" style="whiteSpace=wrap;html=1;aspect=fixed;fontSize=49;" vertex="1" parent="1">
          <mxGeometry x="50" y="730" width="80" height="80" as="geometry" />
        </mxCell>
        <mxCell id="zAW8dGN2lJ-clcFLrGdg-13" value="" style="whiteSpace=wrap;html=1;aspect=fixed;fontSize=49;" vertex="1" parent="1">
          <mxGeometry x="210" y="650" width="80" height="80" as="geometry" />
        </mxCell>
        <mxCell id="zAW8dGN2lJ-clcFLrGdg-14" value="22" style="whiteSpace=wrap;html=1;aspect=fixed;fontSize=49;" vertex="1" parent="1">
          <mxGeometry x="210" y="730" width="80" height="80" as="geometry" />
        </mxCell>
        <mxCell id="zAW8dGN2lJ-clcFLrGdg-108" style="edgeStyle=orthogonalEdgeStyle;rounded=0;orthogonalLoop=1;jettySize=auto;html=1;exitX=1;exitY=0.5;exitDx=0;exitDy=0;entryX=0;entryY=0.5;entryDx=0;entryDy=0;" edge="1" parent="1" source="zAW8dGN2lJ-clcFLrGdg-15" target="zAW8dGN2lJ-clcFLrGdg-64">
          <mxGeometry relative="1" as="geometry" />
        </mxCell>
        <mxCell id="zAW8dGN2lJ-clcFLrGdg-15" value="" style="whiteSpace=wrap;html=1;fontSize=49;" vertex="1" parent="1">
          <mxGeometry x="130" y="570" width="160" height="80" as="geometry" />
        </mxCell>
        <mxCell id="zAW8dGN2lJ-clcFLrGdg-16" value="B" style="whiteSpace=wrap;html=1;aspect=fixed;fontSize=49;" vertex="1" parent="1">
          <mxGeometry x="50" y="570" width="80" height="80" as="geometry" />
        </mxCell>
        <mxCell id="zAW8dGN2lJ-clcFLrGdg-17" value="0" style="whiteSpace=wrap;html=1;aspect=fixed;fontSize=49;" vertex="1" parent="1">
          <mxGeometry x="50" y="490" width="80" height="80" as="geometry" />
        </mxCell>
        <mxCell id="zAW8dGN2lJ-clcFLrGdg-18" value="12" style="whiteSpace=wrap;html=1;aspect=fixed;fontSize=49;" vertex="1" parent="1">
          <mxGeometry x="210" y="490" width="80" height="80" as="geometry" />
        </mxCell>
        <mxCell id="zAW8dGN2lJ-clcFLrGdg-19" value="3" style="whiteSpace=wrap;html=1;aspect=fixed;fontSize=49;" vertex="1" parent="1">
          <mxGeometry x="50" y="1080" width="80" height="80" as="geometry" />
        </mxCell>
        <mxCell id="zAW8dGN2lJ-clcFLrGdg-20" value="4" style="whiteSpace=wrap;html=1;aspect=fixed;fontSize=49;" vertex="1" parent="1">
          <mxGeometry x="130" y="1080" width="80" height="80" as="geometry" />
        </mxCell>
        <mxCell id="zAW8dGN2lJ-clcFLrGdg-21" value="3" style="whiteSpace=wrap;html=1;aspect=fixed;fontSize=49;" vertex="1" parent="1">
          <mxGeometry x="50" y="1160" width="80" height="80" as="geometry" />
        </mxCell>
        <mxCell id="zAW8dGN2lJ-clcFLrGdg-22" value="0" style="whiteSpace=wrap;html=1;aspect=fixed;fontSize=49;" vertex="1" parent="1">
          <mxGeometry x="210" y="1080" width="80" height="80" as="geometry" />
        </mxCell>
        <mxCell id="zAW8dGN2lJ-clcFLrGdg-112" value="" style="edgeStyle=orthogonalEdgeStyle;rounded=0;orthogonalLoop=1;jettySize=auto;html=1;" edge="1" parent="1" source="zAW8dGN2lJ-clcFLrGdg-23" target="zAW8dGN2lJ-clcFLrGdg-21">
          <mxGeometry relative="1" as="geometry" />
        </mxCell>
        <mxCell id="zAW8dGN2lJ-clcFLrGdg-23" value="7" style="whiteSpace=wrap;html=1;aspect=fixed;fontSize=49;" vertex="1" parent="1">
          <mxGeometry x="210" y="1160" width="80" height="80" as="geometry" />
        </mxCell>
        <mxCell id="zAW8dGN2lJ-clcFLrGdg-101" style="edgeStyle=orthogonalEdgeStyle;rounded=0;orthogonalLoop=1;jettySize=auto;html=1;exitX=1;exitY=0.5;exitDx=0;exitDy=0;entryX=0;entryY=0.5;entryDx=0;entryDy=0;" edge="1" parent="1" source="zAW8dGN2lJ-clcFLrGdg-24" target="zAW8dGN2lJ-clcFLrGdg-43">
          <mxGeometry relative="1" as="geometry" />
        </mxCell>
        <mxCell id="zAW8dGN2lJ-clcFLrGdg-24" value="" style="whiteSpace=wrap;html=1;fontSize=49;" vertex="1" parent="1">
          <mxGeometry x="130" y="1000" width="160" height="80" as="geometry" />
        </mxCell>
        <mxCell id="zAW8dGN2lJ-clcFLrGdg-25" value="C" style="whiteSpace=wrap;html=1;aspect=fixed;fontSize=49;" vertex="1" parent="1">
          <mxGeometry x="50" y="1000" width="80" height="80" as="geometry" />
        </mxCell>
        <mxCell id="zAW8dGN2lJ-clcFLrGdg-26" value="0" style="whiteSpace=wrap;html=1;aspect=fixed;fontSize=49;" vertex="1" parent="1">
          <mxGeometry x="50" y="920" width="80" height="80" as="geometry" />
        </mxCell>
        <mxCell id="zAW8dGN2lJ-clcFLrGdg-27" value="3" style="whiteSpace=wrap;html=1;aspect=fixed;fontSize=49;" vertex="1" parent="1">
          <mxGeometry x="210" y="920" width="80" height="80" as="geometry" />
        </mxCell>
        <mxCell id="zAW8dGN2lJ-clcFLrGdg-28" value="9" style="whiteSpace=wrap;html=1;aspect=fixed;fontSize=49;" vertex="1" parent="1">
          <mxGeometry x="440" y="220" width="80" height="80" as="geometry" />
        </mxCell>
        <mxCell id="zAW8dGN2lJ-clcFLrGdg-29" value="" style="whiteSpace=wrap;html=1;aspect=fixed;fontSize=49;" vertex="1" parent="1">
          <mxGeometry x="520" y="220" width="80" height="80" as="geometry" />
        </mxCell>
        <mxCell id="zAW8dGN2lJ-clcFLrGdg-30" value="5" style="whiteSpace=wrap;html=1;aspect=fixed;fontSize=49;" vertex="1" parent="1">
          <mxGeometry x="440" y="300" width="80" height="80" as="geometry" />
        </mxCell>
        <mxCell id="zAW8dGN2lJ-clcFLrGdg-31" value="0" style="whiteSpace=wrap;html=1;aspect=fixed;fontSize=49;" vertex="1" parent="1">
          <mxGeometry x="600" y="220" width="80" height="80" as="geometry" />
        </mxCell>
        <mxCell id="zAW8dGN2lJ-clcFLrGdg-32" value="14" style="whiteSpace=wrap;html=1;aspect=fixed;fontSize=49;" vertex="1" parent="1">
          <mxGeometry x="600" y="300" width="80" height="80" as="geometry" />
        </mxCell>
        <mxCell id="zAW8dGN2lJ-clcFLrGdg-102" style="edgeStyle=orthogonalEdgeStyle;rounded=0;orthogonalLoop=1;jettySize=auto;html=1;exitX=1;exitY=0.5;exitDx=0;exitDy=0;entryX=0;entryY=0.5;entryDx=0;entryDy=0;fillColor=#f8cecc;strokeColor=#b85450;strokeWidth=5;" edge="1" parent="1" source="zAW8dGN2lJ-clcFLrGdg-33" target="zAW8dGN2lJ-clcFLrGdg-52">
          <mxGeometry relative="1" as="geometry" />
        </mxCell>
        <mxCell id="zAW8dGN2lJ-clcFLrGdg-33" value="" style="whiteSpace=wrap;html=1;fontSize=49;" vertex="1" parent="1">
          <mxGeometry x="520" y="140" width="160" height="80" as="geometry" />
        </mxCell>
        <mxCell id="zAW8dGN2lJ-clcFLrGdg-34" value="D" style="whiteSpace=wrap;html=1;aspect=fixed;fontSize=49;" vertex="1" parent="1">
          <mxGeometry x="440" y="140" width="80" height="80" as="geometry" />
        </mxCell>
        <mxCell id="zAW8dGN2lJ-clcFLrGdg-35" value="5" style="whiteSpace=wrap;html=1;aspect=fixed;fontSize=49;" vertex="1" parent="1">
          <mxGeometry x="440" y="60" width="80" height="80" as="geometry" />
        </mxCell>
        <mxCell id="zAW8dGN2lJ-clcFLrGdg-107" style="edgeStyle=orthogonalEdgeStyle;rounded=0;orthogonalLoop=1;jettySize=auto;html=1;exitX=1;exitY=0.5;exitDx=0;exitDy=0;entryX=0;entryY=0.5;entryDx=0;entryDy=0;" edge="1" parent="1" source="zAW8dGN2lJ-clcFLrGdg-36" target="zAW8dGN2lJ-clcFLrGdg-79">
          <mxGeometry relative="1" as="geometry">
            <Array as="points">
              <mxPoint x="1160" y="100" />
              <mxPoint x="1160" y="780" />
            </Array>
          </mxGeometry>
        </mxCell>
        <mxCell id="zAW8dGN2lJ-clcFLrGdg-36" value="14" style="whiteSpace=wrap;html=1;aspect=fixed;fontSize=49;" vertex="1" parent="1">
          <mxGeometry x="600" y="60" width="80" height="80" as="geometry" />
        </mxCell>
        <mxCell id="zAW8dGN2lJ-clcFLrGdg-37" value="4" style="whiteSpace=wrap;html=1;aspect=fixed;fontSize=49;" vertex="1" parent="1">
          <mxGeometry x="440" y="1080" width="80" height="80" as="geometry" />
        </mxCell>
        <mxCell id="zAW8dGN2lJ-clcFLrGdg-38" value="4" style="whiteSpace=wrap;html=1;aspect=fixed;fontSize=49;" vertex="1" parent="1">
          <mxGeometry x="520" y="1080" width="80" height="80" as="geometry" />
        </mxCell>
        <mxCell id="zAW8dGN2lJ-clcFLrGdg-39" value="7" style="whiteSpace=wrap;html=1;aspect=fixed;fontSize=49;" vertex="1" parent="1">
          <mxGeometry x="440" y="1160" width="80" height="80" as="geometry" />
        </mxCell>
        <mxCell id="zAW8dGN2lJ-clcFLrGdg-104" style="edgeStyle=orthogonalEdgeStyle;rounded=0;orthogonalLoop=1;jettySize=auto;html=1;exitX=1;exitY=0.5;exitDx=0;exitDy=0;entryX=0;entryY=0.5;entryDx=0;entryDy=0;" edge="1" parent="1" source="zAW8dGN2lJ-clcFLrGdg-40" target="zAW8dGN2lJ-clcFLrGdg-55">
          <mxGeometry relative="1" as="geometry" />
        </mxCell>
        <mxCell id="zAW8dGN2lJ-clcFLrGdg-40" value="0" style="whiteSpace=wrap;html=1;aspect=fixed;fontSize=49;" vertex="1" parent="1">
          <mxGeometry x="600" y="1080" width="80" height="80" as="geometry" />
        </mxCell>
        <mxCell id="zAW8dGN2lJ-clcFLrGdg-41" value="11" style="whiteSpace=wrap;html=1;aspect=fixed;fontSize=49;" vertex="1" parent="1">
          <mxGeometry x="600" y="1160" width="80" height="80" as="geometry" />
        </mxCell>
        <mxCell id="zAW8dGN2lJ-clcFLrGdg-103" style="edgeStyle=orthogonalEdgeStyle;rounded=0;orthogonalLoop=1;jettySize=auto;html=1;exitX=1;exitY=0.5;exitDx=0;exitDy=0;entryX=0;entryY=0.5;entryDx=0;entryDy=0;" edge="1" parent="1" source="zAW8dGN2lJ-clcFLrGdg-42" target="zAW8dGN2lJ-clcFLrGdg-46">
          <mxGeometry relative="1" as="geometry" />
        </mxCell>
        <mxCell id="zAW8dGN2lJ-clcFLrGdg-42" value="" style="whiteSpace=wrap;html=1;fontSize=49;" vertex="1" parent="1">
          <mxGeometry x="520" y="1000" width="160" height="80" as="geometry" />
        </mxCell>
        <mxCell id="zAW8dGN2lJ-clcFLrGdg-43" value="E " style="whiteSpace=wrap;html=1;aspect=fixed;fontSize=49;" vertex="1" parent="1">
          <mxGeometry x="440" y="1000" width="80" height="80" as="geometry" />
        </mxCell>
        <mxCell id="zAW8dGN2lJ-clcFLrGdg-44" value="3" style="whiteSpace=wrap;html=1;aspect=fixed;fontSize=49;" vertex="1" parent="1">
          <mxGeometry x="440" y="920" width="80" height="80" as="geometry" />
        </mxCell>
        <mxCell id="zAW8dGN2lJ-clcFLrGdg-45" value="7" style="whiteSpace=wrap;html=1;aspect=fixed;fontSize=49;" vertex="1" parent="1">
          <mxGeometry x="600" y="920" width="80" height="80" as="geometry" />
        </mxCell>
        <mxCell id="zAW8dGN2lJ-clcFLrGdg-46" value="8" style="whiteSpace=wrap;html=1;aspect=fixed;fontSize=49;" vertex="1" parent="1">
          <mxGeometry x="870" y="620" width="80" height="80" as="geometry" />
        </mxCell>
        <mxCell id="zAW8dGN2lJ-clcFLrGdg-47" value="0" style="whiteSpace=wrap;html=1;aspect=fixed;fontSize=49;" vertex="1" parent="1">
          <mxGeometry x="950" y="620" width="80" height="80" as="geometry" />
        </mxCell>
        <mxCell id="zAW8dGN2lJ-clcFLrGdg-48" value="14" style="whiteSpace=wrap;html=1;aspect=fixed;fontSize=49;" vertex="1" parent="1">
          <mxGeometry x="870" y="700" width="80" height="80" as="geometry" />
        </mxCell>
        <mxCell id="zAW8dGN2lJ-clcFLrGdg-49" value="0" style="whiteSpace=wrap;html=1;aspect=fixed;fontSize=49;" vertex="1" parent="1">
          <mxGeometry x="1030" y="620" width="80" height="80" as="geometry" />
        </mxCell>
        <mxCell id="zAW8dGN2lJ-clcFLrGdg-50" value="22" style="whiteSpace=wrap;html=1;aspect=fixed;fontSize=49;" vertex="1" parent="1">
          <mxGeometry x="1030" y="700" width="80" height="80" as="geometry" />
        </mxCell>
        <mxCell id="zAW8dGN2lJ-clcFLrGdg-106" style="edgeStyle=orthogonalEdgeStyle;rounded=0;orthogonalLoop=1;jettySize=auto;html=1;exitX=1;exitY=0.5;exitDx=0;exitDy=0;entryX=0;entryY=0.5;entryDx=0;entryDy=0;fillColor=#f8cecc;strokeColor=#b85450;strokeWidth=5;" edge="1" parent="1" source="zAW8dGN2lJ-clcFLrGdg-51" target="zAW8dGN2lJ-clcFLrGdg-70">
          <mxGeometry relative="1" as="geometry" />
        </mxCell>
        <mxCell id="zAW8dGN2lJ-clcFLrGdg-51" value="" style="whiteSpace=wrap;html=1;fontSize=49;" vertex="1" parent="1">
          <mxGeometry x="950" y="540" width="160" height="80" as="geometry" />
        </mxCell>
        <mxCell id="zAW8dGN2lJ-clcFLrGdg-52" value="G" style="whiteSpace=wrap;html=1;aspect=fixed;fontSize=49;" vertex="1" parent="1">
          <mxGeometry x="870" y="540" width="80" height="80" as="geometry" />
        </mxCell>
        <mxCell id="zAW8dGN2lJ-clcFLrGdg-53" value="14" style="whiteSpace=wrap;html=1;aspect=fixed;fontSize=49;" vertex="1" parent="1">
          <mxGeometry x="870" y="460" width="80" height="80" as="geometry" />
        </mxCell>
        <mxCell id="zAW8dGN2lJ-clcFLrGdg-54" value="22" style="whiteSpace=wrap;html=1;aspect=fixed;fontSize=49;" vertex="1" parent="1">
          <mxGeometry x="1030" y="460" width="80" height="80" as="geometry" />
        </mxCell>
        <mxCell id="zAW8dGN2lJ-clcFLrGdg-55" value="4" style="whiteSpace=wrap;html=1;aspect=fixed;fontSize=49;" vertex="1" parent="1">
          <mxGeometry x="860" y="1080" width="80" height="80" as="geometry" />
        </mxCell>
        <mxCell id="zAW8dGN2lJ-clcFLrGdg-56" value="4" style="whiteSpace=wrap;html=1;aspect=fixed;fontSize=49;" vertex="1" parent="1">
          <mxGeometry x="940" y="1080" width="80" height="80" as="geometry" />
        </mxCell>
        <mxCell id="zAW8dGN2lJ-clcFLrGdg-57" value="11" style="whiteSpace=wrap;html=1;aspect=fixed;fontSize=49;" vertex="1" parent="1">
          <mxGeometry x="860" y="1160" width="80" height="80" as="geometry" />
        </mxCell>
        <mxCell id="zAW8dGN2lJ-clcFLrGdg-58" value="3" style="whiteSpace=wrap;html=1;aspect=fixed;fontSize=49;" vertex="1" parent="1">
          <mxGeometry x="1020" y="1080" width="80" height="80" as="geometry" />
        </mxCell>
        <mxCell id="zAW8dGN2lJ-clcFLrGdg-59" value="15" style="whiteSpace=wrap;html=1;aspect=fixed;fontSize=49;" vertex="1" parent="1">
          <mxGeometry x="1020" y="1160" width="80" height="80" as="geometry" />
        </mxCell>
        <mxCell id="zAW8dGN2lJ-clcFLrGdg-105" style="edgeStyle=orthogonalEdgeStyle;rounded=0;orthogonalLoop=1;jettySize=auto;html=1;exitX=1;exitY=0.5;exitDx=0;exitDy=0;entryX=0;entryY=0.5;entryDx=0;entryDy=0;" edge="1" parent="1" source="zAW8dGN2lJ-clcFLrGdg-60" target="zAW8dGN2lJ-clcFLrGdg-73">
          <mxGeometry relative="1" as="geometry" />
        </mxCell>
        <mxCell id="zAW8dGN2lJ-clcFLrGdg-60" value="" style="whiteSpace=wrap;html=1;fontSize=49;" vertex="1" parent="1">
          <mxGeometry x="940" y="1000" width="160" height="80" as="geometry" />
        </mxCell>
        <mxCell id="zAW8dGN2lJ-clcFLrGdg-61" value="F" style="whiteSpace=wrap;html=1;aspect=fixed;fontSize=49;" vertex="1" parent="1">
          <mxGeometry x="860" y="1000" width="80" height="80" as="geometry" />
        </mxCell>
        <mxCell id="zAW8dGN2lJ-clcFLrGdg-62" value="7" style="whiteSpace=wrap;html=1;aspect=fixed;fontSize=49;" vertex="1" parent="1">
          <mxGeometry x="860" y="920" width="80" height="80" as="geometry" />
        </mxCell>
        <mxCell id="zAW8dGN2lJ-clcFLrGdg-63" value="11" style="whiteSpace=wrap;html=1;aspect=fixed;fontSize=49;" vertex="1" parent="1">
          <mxGeometry x="1020" y="920" width="80" height="80" as="geometry" />
        </mxCell>
        <mxCell id="zAW8dGN2lJ-clcFLrGdg-64" value="9" style="whiteSpace=wrap;html=1;aspect=fixed;fontSize=49;" vertex="1" parent="1">
          <mxGeometry x="1330" y="240" width="80" height="80" as="geometry" />
        </mxCell>
        <mxCell id="zAW8dGN2lJ-clcFLrGdg-65" value="0" style="whiteSpace=wrap;html=1;aspect=fixed;fontSize=49;" vertex="1" parent="1">
          <mxGeometry x="1410" y="240" width="80" height="80" as="geometry" />
        </mxCell>
        <mxCell id="zAW8dGN2lJ-clcFLrGdg-66" value="22" style="whiteSpace=wrap;html=1;aspect=fixed;fontSize=49;" vertex="1" parent="1">
          <mxGeometry x="1330" y="320" width="80" height="80" as="geometry" />
        </mxCell>
        <mxCell id="zAW8dGN2lJ-clcFLrGdg-67" value="0" style="whiteSpace=wrap;html=1;aspect=fixed;fontSize=49;" vertex="1" parent="1">
          <mxGeometry x="1490" y="240" width="80" height="80" as="geometry" />
        </mxCell>
        <mxCell id="zAW8dGN2lJ-clcFLrGdg-68" value="31" style="whiteSpace=wrap;html=1;aspect=fixed;fontSize=49;" vertex="1" parent="1">
          <mxGeometry x="1490" y="320" width="80" height="80" as="geometry" />
        </mxCell>
        <mxCell id="zAW8dGN2lJ-clcFLrGdg-110" style="edgeStyle=orthogonalEdgeStyle;rounded=0;orthogonalLoop=1;jettySize=auto;html=1;exitX=1;exitY=0.5;exitDx=0;exitDy=0;entryX=0;entryY=0.5;entryDx=0;entryDy=0;fillColor=#f8cecc;strokeColor=#b85450;strokeWidth=5;" edge="1" parent="1" source="zAW8dGN2lJ-clcFLrGdg-69" target="zAW8dGN2lJ-clcFLrGdg-97">
          <mxGeometry relative="1" as="geometry" />
        </mxCell>
        <mxCell id="zAW8dGN2lJ-clcFLrGdg-69" value="" style="whiteSpace=wrap;html=1;fontSize=49;" vertex="1" parent="1">
          <mxGeometry x="1410" y="160" width="160" height="80" as="geometry" />
        </mxCell>
        <mxCell id="zAW8dGN2lJ-clcFLrGdg-70" value="I" style="whiteSpace=wrap;html=1;aspect=fixed;fontSize=49;" vertex="1" parent="1">
          <mxGeometry x="1330" y="160" width="80" height="80" as="geometry" />
        </mxCell>
        <mxCell id="zAW8dGN2lJ-clcFLrGdg-71" value="22" style="whiteSpace=wrap;html=1;aspect=fixed;fontSize=49;" vertex="1" parent="1">
          <mxGeometry x="1330" y="80" width="80" height="80" as="geometry" />
        </mxCell>
        <mxCell id="zAW8dGN2lJ-clcFLrGdg-72" value="31" style="whiteSpace=wrap;html=1;aspect=fixed;fontSize=49;" vertex="1" parent="1">
          <mxGeometry x="1490" y="80" width="80" height="80" as="geometry" />
        </mxCell>
        <mxCell id="zAW8dGN2lJ-clcFLrGdg-73" value="10" style="whiteSpace=wrap;html=1;aspect=fixed;fontSize=49;" vertex="1" parent="1">
          <mxGeometry x="1240" y="820" width="80" height="80" as="geometry" />
        </mxCell>
        <mxCell id="zAW8dGN2lJ-clcFLrGdg-74" value="1" style="whiteSpace=wrap;html=1;aspect=fixed;fontSize=49;" vertex="1" parent="1">
          <mxGeometry x="1320" y="820" width="80" height="80" as="geometry" />
        </mxCell>
        <mxCell id="zAW8dGN2lJ-clcFLrGdg-75" value="15" style="whiteSpace=wrap;html=1;aspect=fixed;fontSize=49;" vertex="1" parent="1">
          <mxGeometry x="1240" y="900" width="80" height="80" as="geometry" />
        </mxCell>
        <mxCell id="zAW8dGN2lJ-clcFLrGdg-76" value="0" style="whiteSpace=wrap;html=1;aspect=fixed;fontSize=49;" vertex="1" parent="1">
          <mxGeometry x="1400" y="820" width="80" height="80" as="geometry" />
        </mxCell>
        <mxCell id="zAW8dGN2lJ-clcFLrGdg-77" value="25" style="whiteSpace=wrap;html=1;aspect=fixed;fontSize=49;" vertex="1" parent="1">
          <mxGeometry x="1400" y="900" width="80" height="80" as="geometry" />
        </mxCell>
        <mxCell id="zAW8dGN2lJ-clcFLrGdg-109" style="edgeStyle=orthogonalEdgeStyle;rounded=0;orthogonalLoop=1;jettySize=auto;html=1;exitX=1;exitY=0.5;exitDx=0;exitDy=0;entryX=0;entryY=0.5;entryDx=0;entryDy=0;" edge="1" parent="1" source="zAW8dGN2lJ-clcFLrGdg-78" target="zAW8dGN2lJ-clcFLrGdg-88">
          <mxGeometry relative="1" as="geometry" />
        </mxCell>
        <mxCell id="zAW8dGN2lJ-clcFLrGdg-78" value="" style="whiteSpace=wrap;html=1;fontSize=49;" vertex="1" parent="1">
          <mxGeometry x="1320" y="740" width="160" height="80" as="geometry" />
        </mxCell>
        <mxCell id="zAW8dGN2lJ-clcFLrGdg-79" value="H" style="whiteSpace=wrap;html=1;aspect=fixed;fontSize=49;" vertex="1" parent="1">
          <mxGeometry x="1240" y="740" width="80" height="80" as="geometry" />
        </mxCell>
        <mxCell id="zAW8dGN2lJ-clcFLrGdg-80" value="14" style="whiteSpace=wrap;html=1;aspect=fixed;fontSize=49;" vertex="1" parent="1">
          <mxGeometry x="1240" y="660" width="80" height="80" as="geometry" />
        </mxCell>
        <mxCell id="zAW8dGN2lJ-clcFLrGdg-81" value="24" style="whiteSpace=wrap;html=1;aspect=fixed;fontSize=49;" vertex="1" parent="1">
          <mxGeometry x="1400" y="660" width="80" height="80" as="geometry" />
        </mxCell>
        <mxCell id="zAW8dGN2lJ-clcFLrGdg-82" value="6" style="whiteSpace=wrap;html=1;aspect=fixed;fontSize=49;" vertex="1" parent="1">
          <mxGeometry x="1670" y="820" width="80" height="80" as="geometry" />
        </mxCell>
        <mxCell id="zAW8dGN2lJ-clcFLrGdg-83" value="1" style="whiteSpace=wrap;html=1;aspect=fixed;fontSize=49;" vertex="1" parent="1">
          <mxGeometry x="1750" y="820" width="80" height="80" as="geometry" />
        </mxCell>
        <mxCell id="zAW8dGN2lJ-clcFLrGdg-84" value="25" style="whiteSpace=wrap;html=1;aspect=fixed;fontSize=49;" vertex="1" parent="1">
          <mxGeometry x="1670" y="900" width="80" height="80" as="geometry" />
        </mxCell>
        <mxCell id="zAW8dGN2lJ-clcFLrGdg-85" value="1" style="whiteSpace=wrap;html=1;aspect=fixed;fontSize=49;" vertex="1" parent="1">
          <mxGeometry x="1830" y="820" width="80" height="80" as="geometry" />
        </mxCell>
        <mxCell id="zAW8dGN2lJ-clcFLrGdg-86" value="31" style="whiteSpace=wrap;html=1;aspect=fixed;fontSize=49;" vertex="1" parent="1">
          <mxGeometry x="1830" y="900" width="80" height="80" as="geometry" />
        </mxCell>
        <mxCell id="zAW8dGN2lJ-clcFLrGdg-111" style="edgeStyle=orthogonalEdgeStyle;rounded=0;orthogonalLoop=1;jettySize=auto;html=1;exitX=1;exitY=0.5;exitDx=0;exitDy=0;entryX=0;entryY=0.5;entryDx=0;entryDy=0;" edge="1" parent="1" source="zAW8dGN2lJ-clcFLrGdg-87" target="zAW8dGN2lJ-clcFLrGdg-91">
          <mxGeometry relative="1" as="geometry" />
        </mxCell>
        <mxCell id="zAW8dGN2lJ-clcFLrGdg-87" value="" style="whiteSpace=wrap;html=1;fontSize=49;" vertex="1" parent="1">
          <mxGeometry x="1750" y="740" width="160" height="80" as="geometry" />
        </mxCell>
        <mxCell id="zAW8dGN2lJ-clcFLrGdg-88" value="J" style="whiteSpace=wrap;html=1;aspect=fixed;fontSize=49;" vertex="1" parent="1">
          <mxGeometry x="1670" y="740" width="80" height="80" as="geometry" />
        </mxCell>
        <mxCell id="zAW8dGN2lJ-clcFLrGdg-89" value="24" style="whiteSpace=wrap;html=1;aspect=fixed;fontSize=49;" vertex="1" parent="1">
          <mxGeometry x="1670" y="660" width="80" height="80" as="geometry" />
        </mxCell>
        <mxCell id="zAW8dGN2lJ-clcFLrGdg-90" value="30" style="whiteSpace=wrap;html=1;aspect=fixed;fontSize=49;" vertex="1" parent="1">
          <mxGeometry x="1830" y="660" width="80" height="80" as="geometry" />
        </mxCell>
        <mxCell id="zAW8dGN2lJ-clcFLrGdg-91" value="&lt;div&gt;17&lt;/div&gt;" style="whiteSpace=wrap;html=1;aspect=fixed;fontSize=49;" vertex="1" parent="1">
          <mxGeometry x="2068" y="590" width="80" height="80" as="geometry" />
        </mxCell>
        <mxCell id="zAW8dGN2lJ-clcFLrGdg-92" value="-" style="whiteSpace=wrap;html=1;aspect=fixed;fontSize=49;" vertex="1" parent="1">
          <mxGeometry x="2148" y="590" width="80" height="80" as="geometry" />
        </mxCell>
        <mxCell id="zAW8dGN2lJ-clcFLrGdg-93" value="31" style="whiteSpace=wrap;html=1;aspect=fixed;fontSize=49;" vertex="1" parent="1">
          <mxGeometry x="2068" y="670" width="80" height="80" as="geometry" />
        </mxCell>
        <mxCell id="zAW8dGN2lJ-clcFLrGdg-94" value="-" style="whiteSpace=wrap;html=1;aspect=fixed;fontSize=49;" vertex="1" parent="1">
          <mxGeometry x="2228" y="590" width="80" height="80" as="geometry" />
        </mxCell>
        <mxCell id="zAW8dGN2lJ-clcFLrGdg-95" value="46" style="whiteSpace=wrap;html=1;aspect=fixed;fontSize=49;" vertex="1" parent="1">
          <mxGeometry x="2228" y="670" width="80" height="80" as="geometry" />
        </mxCell>
        <mxCell id="zAW8dGN2lJ-clcFLrGdg-96" value="" style="whiteSpace=wrap;html=1;fontSize=49;" vertex="1" parent="1">
          <mxGeometry x="2148" y="510" width="160" height="80" as="geometry" />
        </mxCell>
        <mxCell id="zAW8dGN2lJ-clcFLrGdg-97" value="K" style="whiteSpace=wrap;html=1;aspect=fixed;fontSize=49;" vertex="1" parent="1">
          <mxGeometry x="2068" y="510" width="80" height="80" as="geometry" />
        </mxCell>
        <mxCell id="zAW8dGN2lJ-clcFLrGdg-98" value="31" style="whiteSpace=wrap;html=1;aspect=fixed;fontSize=49;" vertex="1" parent="1">
          <mxGeometry x="2068" y="430" width="80" height="80" as="geometry" />
        </mxCell>
        <mxCell id="zAW8dGN2lJ-clcFLrGdg-99" value="46" style="whiteSpace=wrap;html=1;aspect=fixed;fontSize=49;" vertex="1" parent="1">
          <mxGeometry x="2228" y="430" width="80" height="80" as="geometry" />
        </mxCell>
      </root>
    </mxGraphModel>
  </diagram>
</mxfile>
